<svg xmlns="http://www.w3.org/2000/svg" width="160" height="160" viewBox="0 0 160 160" fill="none">
  <rect width="160" height="160" fill="#fff"/>
  <g fill="#000">
    <circle cx="6" cy="10" r="1" opacity=".18"/>
    <circle cx="18" cy="28" r="1" opacity=".12"/>
    <circle cx="34" cy="14" r="1" opacity=".16"/>
    <circle cx="46" cy="36" r="1" opacity=".14"/>
    <circle cx="58" cy="8" r="1" opacity=".11"/>
    <circle cx="74" cy="22" r="1" opacity=".17"/>
    <circle cx="88" cy="12" r="1" opacity=".13"/>
    <circle cx="102" cy="30" r="1" opacity=".16"/>
    <circle cx="118" cy="18" r="1" opacity=".12"/>
    <circle cx="132" cy="8" r="1" opacity=".15"/>
    <circle cx="148" cy="26" r="1" opacity=".14"/>
    <circle cx="12" cy="52" r="1" opacity=".13"/>
    <circle cx="26" cy="68" r="1" opacity=".19"/>
    <circle cx="40" cy="54" r="1" opacity=".11"/>
    <circle cx="54" cy="74" r="1" opacity=".16"/>
    <circle cx="68" cy="60" r="1" opacity=".12"/>
    <circle cx="82" cy="78" r="1" opacity=".18"/>
    <circle cx="98" cy="56" r="1" opacity=".14"/>
    <circle cx="114" cy="70" r="1" opacity=".12"/>
    <circle cx="126" cy="50" r="1" opacity=".17"/>
    <circle cx="142" cy="66" r="1" opacity=".11"/>
    <circle cx="8" cy="92" r="1" opacity=".16"/>
    <circle cx="22" cy="108" r="1" opacity=".12"/>
    <circle cx="36" cy="94" r="1" opacity=".18"/>
    <circle cx="50" cy="116" r="1" opacity=".13"/>
    <circle cx="66" cy="98" r="1" opacity=".15"/>
    <circle cx="80" cy="112" r="1" opacity=".11"/>
    <circle cx="94" cy="90" r="1" opacity=".17"/>
    <circle cx="110" cy="106" r="1" opacity=".14"/>
    <circle cx="124" cy="96" r="1" opacity=".12"/>
    <circle cx="138" cy="114" r="1" opacity=".19"/>
    <circle cx="14" cy="132" r="1" opacity=".11"/>
    <circle cx="30" cy="148" r="1" opacity=".16"/>
    <circle cx="44" cy="136" r="1" opacity=".13"/>
    <circle cx="60" cy="152" r="1" opacity=".17"/>
    <circle cx="76" cy="130" r="1" opacity=".12"/>
    <circle cx="90" cy="146" r="1" opacity=".18"/>
    <circle cx="104" cy="134" r="1" opacity=".14"/>
    <circle cx="120" cy="150" r="1" opacity=".11"/>
    <circle cx="134" cy="138" r="1" opacity=".16"/>
    <circle cx="150" cy="154" r="1" opacity=".13"/>
    <circle cx="20" cy="18" r=".6" opacity=".1"/>
    <circle cx="52" cy="24" r=".6" opacity=".08"/>
    <circle cx="96" cy="20" r=".6" opacity=".09"/>
    <circle cx="140" cy="18" r=".6" opacity=".1"/>
    <circle cx="10" cy="42" r=".6" opacity=".08"/>
    <circle cx="70" cy="42" r=".6" opacity=".09"/>
    <circle cx="122" cy="40" r=".6" opacity=".08"/>
    <circle cx="34" cy="84" r=".6" opacity=".1"/>
    <circle cx="86" cy="84" r=".6" opacity=".08"/>
    <circle cx="146" cy="86" r=".6" opacity=".09"/>
    <circle cx="18" cy="124" r=".6" opacity=".08"/>
    <circle cx="74" cy="122" r=".6" opacity=".1"/>
    <circle cx="128" cy="124" r=".6" opacity=".09"/>
  </g>
</svg>
